# xmcd
#
# Track frame offsets: 
#        150
#        13410
#        37549
#        55633
#        75249
#        93870
#        115640
#        134552
#        156827
#        177439
#        197597
#        214312
#
# Disc length: 3120 seconds
#
# Revision: 0
# Processed by: cddbd v1.5.2PL0 Copyright (c) Steve Scherf et al.
# Submitted via: ExactAudioCopy v0.99pb5
#
DISCID=910c2e0c
DTITLE=Michael Martin Murphey - Tall Grass and Cool Water
DYEAR=2011
DGENRE=Country
TTITLE0=Texas Cowboy
TTITLE1=Cool Water
TTITLE2=Santa Fe Trai
TTITLE3=Way Out There
TTITLE4=The Railroad Corral
TTITLE5=Partner to the Wind
TTITLE6=Trusty Lariat
TTITLE7=The James Gang Trilogy - The Ballad of Cole Younger
TTITLE8=The James Gang Trilogy - The Ballad of Jesse James
TTITLE9=The James Gang Trilogy - The Ballad of Jesse James
TTITLE10=Blue Prairie
TTITLE11=Springtime in the Rockies
EXTD=
EXTT0=
EXTT1=
EXTT2=
EXTT3=
EXTT4=
EXTT5=
EXTT6=
EXTT7=
EXTT8=
EXTT9=
EXTT10=
EXTT11=
PLAYORDER=
